# xmcd CD database file generated by Grip 3.2.0
# 
# Track frame offsets:
#       150
#       14789
#       30068
#       44557
#       58713
#       72376
#       87608
#       100564
#       116318
#       130555
#       143920
#       155727
#       167768
#       181057
#       194756
#       208161
#       221653
#       235910
#       252201
#       268239
#       280988
# 
# Disc length: 3907 seconds
# 
# Revision: 2
# Processed by: cddbd v1.5.2PL0 Copyright (c) Steve Scherf et al.
# Submitted via: Grip 3.2.0
# 
DISCID=3c0f4115
DTITLE=Various Artist - Jazz in the Charts 072 (1942-1943)
DYEAR=1942
DGENRE=Jazz
TTITLE0=Lucky Millinder and His Orchestra - Vocals Trevor Bacon - When the Lights
TTITLE0=Go on Again (All over the World)
TTITLE1=Jimmy Dorsey and His Orchestra - Vocals Bob Eberle - Vocals Helen O'Connel
TTITLE1=l - Brazil
TTITLE2=Benny Goodman and His Orchestra - Vocals Peggy Lee - Why Don't You Do Rig
TTITLE2=ht
TTITLE3=Tommy Dorsey and His Orchestra - Boogie Woogie
TTITLE4=Harry James and His Orchestra - Vocals Helen Forrest - I've Heard That So
TTITLE4=ng Before
TTITLE5=Harry James and His Orchestra - Vocals Johnny McAffee - Moonlight Becomes
TTITLE5=You
TTITLE6=Glenn Miller and His Orchestra - Vocals Skip Nelson and The Modernaires - M
TTITLE6=oonlight Mood
TTITLE7=Casa Loma Orchestra - Vocals Kenny Sargent and The LeBrun Sisters - Don't
TTITLE7=Get Around Much Anymore
TTITLE8=Tony Pastor and His Orchestra - Hey Mabel
TTITLE9=Tommy Dorsey and His Orchestra - Vocals Frank Sinatra and Pied Pipers - It 
TTITLE9=Started All Over Again
TTITLE10=Woody Herman and His Orchestra - Vocals Woody Herman - Please Be There
TTITLE11=Freddie Slack and His Orchestra - That Old Black Magic
TTITLE12=Muggsy Spanier and His Orchestra - Two O'Clock Jump
TTITLE13=Glenn Miller and His Orchestra - Vocals Skip Nelson and The Modernaires - T
TTITLE13=hat Old Black Magic
TTITLE14=Jimmy Dorsey and His Orchestra - Vocals Bob Eberle - I'm Getting Tired So
TTITLE14=I Can Sleep
TTITLE15=Tommy Dorsey and His Orchestra - Mandy, Make Up Your Mind
TTITLE16=Woody Herman and His Orchestra - Vocals Woody Herman - Four or Five Times
TTITLE17=Cab Calloway and His Orchestra - Vocals Cab Calloway - Ogeechee River Lul
TTITLE17=laby
TTITLE18=Harry James and His Orchestra - Velvet Moon
TTITLE19=Woody Herman and His Orchestra - Vocals Charles Peterson - I Dood It
TTITLE20=Harry James and His Orchestra - Prince Charming
EXTD=YEAR: 1942
EXTT0=
EXTT1=
EXTT2=
EXTT3=
EXTT4=
EXTT5=
EXTT6=
EXTT7=
EXTT8=
EXTT9=
EXTT10=
EXTT11=
EXTT12=
EXTT13=
EXTT14=
EXTT15=
EXTT16=
EXTT17=
EXTT18=
EXTT19=
EXTT20=
PLAYORDER=
